<?xml version="1.0" encoding="utf-8"?>
<!-- Generator: Adobe Illustrator 19.0.0, SVG Export Plug-In . SVG Version: 6.00 Build 0)  -->
<svg version="1.1" id="Layer_1" xmlns="http://www.w3.org/2000/svg" xmlns:xlink="http://www.w3.org/1999/xlink" x="0px" y="0px"
	 viewBox="0 0 652.9 217.2" style="enable-background:new 0 0 652.9 217.2;" xml:space="preserve">
<style type="text/css">
	.st0{fill:#0D2481;}
</style>
<g id="XMLID_334_">
	<g id="XMLID_381_">
		<path id="XMLID_441_" class="st0" d="M20.6,19.8c-0.1,1.6-0.2,2.6-0.2,3.6c0,43.6,0,87.3,0,130.9c0,0.5,0,1,0,1.5
			c0,1.4,0.6,2.1,2,2.1c1,0,2,0,3.1,0c84.1,0,168.2,0,252.3,0c1.1,0,2.2,0,3.4,0c1.5,0.1,2.3,0.9,2.3,2.3c0,3.5,0,6.9,0,10.4
			c0,1.6-0.9,2.4-2.5,2.5c-0.8,0-1.6,0-2.4,0c-85,0-170,0-255.1,0c-3.9,0-7.7-0.7-11.1-2.7c-5.3-3.1-6.8-8.4-7.3-14
			c-0.1-1.2,0-2.4,0-3.7c0-43,0-86,0-129.1c0-3.4,0.5-6.7,1.6-9.9c1.4-4,4.5-6.9,8.5-8.2c2.7-0.9,5.6-1.2,8.4-1.2
			c28.3-0.1,56.7-0.1,85-0.1c4.6,0,4.6,0,4.6,4.6c0,2.4,0,4.9,0,7.3c-0.1,2.8-0.6,3.3-3.5,3.4c-0.9,0-1.8,0-2.8,0
			c-27.3,0-54.6,0-82,0C23.6,19.8,22.3,19.8,20.6,19.8z"/>
		<path id="XMLID_440_" class="st0" d="M510.2,173.2c-39.7,0-79.3,0-119,0c-5.2,0-5.4-0.1-5.4-5.3c0-2.3-0.1-4.7,0-7
			c0.1-2.3,0.6-2.9,2.9-3c1-0.1,2,0,3.1,0c78.5,0,157,0,235.5,0c0.6,0,1.2,0,1.8,0c3.2,0,3.4-0.2,3.4-3.5c0-43.6,0-87.3,0-130.9
			c0-0.2,0-0.4,0-0.6c-0.1-2.8-0.2-3-2.9-3c-1.4,0-2.9,0-4.3,0c-2.9-0.1-3.4-0.6-3.4-3.4c-0.1-3-0.1-5.9,0-8.9
			c0.1-2.5,0.5-2.9,2.8-3c4.3-0.1,8.6-0.2,12.7,1c4.3,1.2,7.3,4.2,8.9,8.2c1.1,2.7,1.5,5.8,1.5,8.7c0.1,44.4,0.1,88.7,0,133.1
			c0,4.2-0.8,8.3-3.5,11.8c-1.9,2.4-4.1,4.1-7.1,4.9c-3.5,0.9-7,1.2-10.6,1.2C587.9,173.2,549,173.2,510.2,173.2z"/>
		<path id="XMLID_429_" class="st0" d="M367.5,4.5c52.3,0,104.6,0,156.9,0c5.4,0,5.4,0,5.4,5.4c0,2.2,0.1,4.5,0,6.7
			c-0.1,2.4-0.8,3-3.2,3.1c-0.9,0-1.8,0-2.8,0c-104.5,0-209,0-313.5,0c-4.8,0-5-0.2-5.1-4.9c0-2.5-0.1-5.1,0-7.6
			c0.1-2.2,0.6-2.6,2.8-2.7c1.2-0.1,2.4,0,3.7,0C263.7,4.5,315.6,4.5,367.5,4.5z"/>
		<path id="XMLID_427_" class="st0" d="M335.4,89.6c0,1.3,0,2.7,0,4c-0.1,3.3-0.6,3.9-3.8,4.3c-5.4,0.7-10.2,2.8-14.4,6.2
			c-10,7.9-13.5,21.5-9.5,33.6c6,17.7,30.2,26.4,46.7,11.7c9.7-8.7,12.1-21.9,7.6-33.3c-2.3-6-2.4-6,2.7-9.7c1.3-1,2.7-1.9,4-2.8
			c3-1.9,4.8-1.4,6.5,1.7c3.9,7.3,5.8,15.2,5.5,23.5c-0.4,14.1-6.2,25.9-17,34.9c-8.5,7.1-18.7,10.4-29.8,10
			c-17.1-0.5-30.2-8.5-38.4-23.2c-7.8-13.8-8.4-28.4-1.7-43.2c4.2-9.2,10.9-15.9,19.5-20.8c5.4-3,11.3-4.7,17.4-5.3
			c3.5-0.3,4.5,0.6,4.6,4.3C335.4,87,335.4,88.3,335.4,89.6z"/>
		<path id="XMLID_426_" class="st0" d="M44,109.2c0-6.8,0-13.7,0-20.5c0-3.7,0.5-4.3,4.3-4.3c8,0,15.9,0,23.9,0c3.5,0,6.6-1,9.3-3.3
			c5.7-5,4.9-14.5-1.7-18.3c-2-1.1-4.4-1.7-6.6-2c-3.1-0.3-6.3-0.1-9.5-0.1c-3.4,0.1-4.5,1.2-4.6,4.7c0,0.5,0,1,0,1.5
			c-0.2,2.2-1,3.2-3.2,3.3c-2.6,0.1-5.3,0.1-7.9,0c-2.4-0.1-3.6-1.2-3.6-3.6c-0.1-6.5-0.1-13.1,0-19.6c0-2.2,1-3,3.3-3
			c9.3,0,18.6-0.6,27.8,0.1c19.6,1.5,31.8,20.3,25,38.6c-1.8,4.7-4.6,8.6-8.5,11.8c-1.7,1.4-1.9,1.8-1,3.9c1.8,4.3,3.8,8.6,5.7,12.8
			c2.8,6.3,5.6,12.7,8.4,19c1.2,2.7,0.7,3.6-2.2,3.7c-3.2,0.1-6.3,0-9.5,0c-1.8,0-3-0.8-3.8-2.5c-2.7-6.3-5.5-12.5-8.3-18.7
			c-1.4-3.1-2.8-6.1-4.1-9.2c-0.7-1.7-1.8-2.3-3.5-2.3c-3.7,0-7.3-0.1-11,0c-3,0.1-3.6,0.6-3.6,3.7c0,8.1,0,16.1,0,24.2
			c0,4.7-0.2,4.9-5.1,4.9c-1.6,0-3.3,0-4.9,0c-4.6,0-4.9-0.4-5-4.8C44,122.5,44,115.9,44,109.2L44,109.2z"/>
		<path id="XMLID_425_" class="st0" d="M484.1,43.1c17.1,0,27.7,4.9,36.5,13.7c2.2,2.1,2.1,2.9-0.2,4.9c-2.4,2.1-4.8,4.1-7.2,6.2
			c-2,1.7-2.3,1.5-4.4,0c-2.7-2.1-5.4-4.4-8.5-5.8c-10.2-4.7-19.9-3.5-29.1,3c-11.2,7.9-17.2,26-6.8,41.2
			c10.3,15,29.9,16.9,42.5,5.8c4-3.5,4.7-3.5,8.7,0.1c1.6,1.4,3.1,2.9,4.7,4.4c2,2,2,3.1,0.1,5.1c-3.2,3.3-6.8,6.1-10.9,8.2
			c-10.6,5.4-21.7,6.8-33.2,3.5c-10.3-2.9-18.6-8.8-24.7-17.5c-11.8-16.9-11.2-38.6,0.6-54.4C461.2,49.5,473.4,43.2,484.1,43.1z"/>
		<path id="XMLID_424_" class="st0" d="M576.1,93.9c-9.3,0-18.6,0-27.8,0c-3.7,0-4.3-0.6-4.3-4.2c0-18.6,0-37.1,0-55.7
			c0-3.4,0.5-4,3.8-4c2.9,0,5.7-0.1,8.6,0c2.6,0.1,3.2,0.8,3.3,3.4c0.1,2.3,0,4.7,0,7c0.1,2.8,0.6,3.4,3.4,3.4
			c5.9,0.1,11.8,0,17.7,0c4.3,0,8.6,0,12.8,0c3,0,3.5,0.6,3.6,3.6c0.1,2.5,0.1,5.1,0,7.6c-0.1,3.4-0.6,3.9-3.9,3.9
			c-9.3,0-18.6,0-27.8,0c-0.8,0-1.6,0-2.4,0c-2.9,0.1-3.4,0.7-3.5,3.4c-0.1,3.9,0,7.7,0,11.6c0,3.4,0.5,3.9,3.9,3.9
			c12.9,0,25.9,0,38.8,0c5.8,0,5.8,0,5.8,5.7c0,1.9,0,3.9,0,5.8c0,3.8-0.5,4.3-4.2,4.3C594.7,94,585.4,93.9,576.1,93.9z"/>
		<path id="XMLID_423_" class="st0" d="M159.1,93.9c-9.3,0-18.5,0-27.8,0c-3.6,0-4.1-0.5-4.1-4.1c0-18.6,0-37.3,0-55.9
			c0-3.4,0.4-3.8,3.9-3.9c2.8,0,5.5-0.1,8.3,0c2.6,0.1,3.2,0.7,3.3,3.4c0.1,2.1,0,4.3,0,6.4c0,3.4,0.7,4.1,4.2,4.1
			c9.5,0,19,0,28.4,0c5.2,0,5.2,0.1,5.2,5.3c0,2.1,0,4.3,0,6.4c-0.1,2.9-0.6,3.4-3.4,3.4c-6,0-12,0-18,0c-4.1,0-8.2,0-12.2,0
			c-3.5,0-4.1,0.7-4.1,4.1c0,3.6,0,7.1,0,10.7c0,3.4,0.7,4.1,4.1,4.1c13.1,0,26.3,0,39.4,0c5,0,5.4,0.4,5.4,5.4c0,2.1,0,4.3,0,6.4
			c-0.1,3.2-0.9,4-4,4C178.1,94,168.6,93.9,159.1,93.9C159.1,93.9,159.1,93.9,159.1,93.9z"/>
		<path id="XMLID_422_" class="st0" d="M251,59.8c-4.1,0-8,0-11.8,0c-5.3,0-5.5-0.2-5.5-5.6c0-2.2,0-4.5,0-6.7
			c0.1-2.5,0.9-3.3,3.4-3.3c9.4,0,18.8,0,28.1,0c2.3,0,3,0.8,3.2,3.2c0.1,0.8,0,1.6,0,2.4c0,18.2,0,36.5,0,54.7c0,3-0.4,6.1-0.9,9.1
			c-2.4,13.5-17.4,24.2-33.1,20.8c-7.7-1.7-13.7-6.1-18.7-11.9c-1.8-2.1-2.5-4.6,1.2-6.4c2.4-1.1,4.7-2.5,7-3.7
			c2.5-1.3,3.3-1.1,5.3,1c3.5,3.7,7.7,5.2,12.7,4.3c4.8-0.8,8.2-4.3,9-9.1c0.2-1.2,0.2-2.4,0.2-3.7c0-13.9,0-27.7,0-41.6
			C251.2,62.2,251.1,61.1,251,59.8z"/>
		<path id="XMLID_421_" class="st0" d="M404.5,89.1c0-13.2,0-26.5,0-39.7c0-0.8,0-1.6,0-2.4c0.2-1.9,1-2.8,2.9-2.8
			c3.9-0.1,7.7-0.1,11.6,0c1.9,0,2.7,0.9,2.9,2.8c0.1,0.9,0.1,1.8,0.1,2.7c0,26.3,0,52.6,0,78.9c0,5.3-0.1,5.4-5.5,5.4
			c-2.8,0-5.5,0-8.3,0c-3.1-0.1-3.7-0.7-3.7-3.9C404.5,116.4,404.5,102.8,404.5,89.1z"/>
		<path id="XMLID_420_" class="st0" d="M159.3,4.2c9,0,17.9,0,26.9,0c0.8,0,1.6,0,2.4,0.1c1.9,0.2,2.6,0.9,2.7,2.7
			c0.1,3.4,0.1,6.7,0,10.1c-0.1,2-1.1,2.8-3.2,2.9c-0.6,0-1.2,0-1.8,0c-18.1,0-36.3,0-54.4,0c-0.5,0-1,0-1.5,0
			c-2.4-0.1-3.1-0.8-3.2-3.2c-0.1-3.3-0.1-6.5,0-9.8c0.1-2.1,0.7-2.7,2.8-2.9c0.8-0.1,1.6,0,2.4,0C141.4,4.2,150.4,4.2,159.3,4.2z"
			/>
		<path id="XMLID_419_" class="st0" d="M575.9,20c-9.2,0-18.4,0-27.5,0c-3.9,0-4.4-0.6-4.5-4.4c0-2.5,0-5.1,0-7.6
			c0-3.1,0.7-3.7,3.8-3.8c0.3,0,0.6,0,0.9,0c18,0,36.1,0,54.1,0c5,0,5.3,0.3,5.3,5.1c0,2.2,0,4.5,0,6.7c-0.1,3.2-0.8,4-4,4
			C594.7,20,585.3,20,575.9,20C575.9,20,575.9,20,575.9,20z"/>
		<path id="XMLID_418_" class="st0" d="M161,203.6c0.1-1.9,0.2-3.8,0.3-6c1.1-0.1,2.2-0.1,3.5-0.2c0.1,1.8,0.2,3.3,0.2,4.8
			c0,2.6,0,5.3,0,7.9c0,1,0.2,2.2-1.2,2.5c-1.3,0.3-2.4-0.1-3.1-1.3c-0.8-1.4-1.7-2.8-2.5-4.2c-0.2-0.4-0.6-0.6-1.5-1.4
			c-0.1,1.6-0.2,2.7-0.2,3.8c0,0.6,0,1.2-0.1,1.8c-0.1,1.2-1,1.4-2,1.4c-1,0-1.5-0.6-1.5-1.5c0-4.4,0-8.9,0-13.2
			c3.1-0.7,3.1-0.7,4.5,1.5c0.9,1.5,1.9,3,2.9,4.5C160.5,203.8,160.8,203.7,161,203.6z"/>
		<path id="XMLID_417_" class="st0" d="M287.8,197.5c1.3,0,2.2,0,3.4,0c0.2,1.9,0.4,3.6,0.6,5.6c1.4,0,2.6,0,4.2,0
			c0.1-1.8,0.3-3.5,0.4-5.5c1.2,0,2.2,0,3.6,0c0,2,0,4,0,5.9c0,2.4,0,4.9,0,7.3c0,1.2-0.6,1.9-1.9,1.8c-1.3,0-1.9-0.6-1.9-1.9
			c0-1.2,0-2.4,0-3.9c-1.6,0-2.8,0-4.4,0c-0.1,1-0.2,2-0.3,2.9c-0.1,2.9-0.3,3-3.7,2.4C287.6,207.4,287.6,202.6,287.8,197.5z"/>
		<path id="XMLID_414_" class="st0" d="M109.3,205c-0.1,4.2-3.7,8.1-7.7,8c-3.9-0.1-7.5-4-7.4-8.2c0.1-4.4,3.6-8,7.7-7.9
			C105.9,197,109.3,200.7,109.3,205z M105.6,205c0-2.1-1.9-4.3-3.9-4.3c-2,0-3.8,2-3.8,4.3c0,2.1,1.7,4.1,3.7,4.1
			C103.6,209.1,105.6,207.1,105.6,205z"/>
		<path id="XMLID_411_" class="st0" d="M236.5,205c0-4.5,3.3-8.1,7.4-8.1c4.1,0,7.5,3.6,7.6,8c0,4.3-3.5,8.1-7.5,8.2
			C240.1,213.1,236.5,209.3,236.5,205z M247.8,205c0-2.3-1.7-4.3-3.8-4.3c-2.1,0-3.9,1.8-3.9,4.2c0,2.2,1.6,4,3.6,4.1
			C245.9,209.2,247.8,207.3,247.8,205z"/>
		<path id="XMLID_408_" class="st0" d="M144.1,207.1c0.3,0.7,0.7,1.5,1.1,2.4c0.4,0.8,0.7,1.6,1,2.4c-2.9,1.1-3.4,0.9-4.6-1.2
			c-0.6-1-1.1-2-1.7-3.1c-1.6,0.9-1.2,2.1-1.3,3.1c-0.1,1.2-0.6,1.9-1.9,1.9c-1.3,0-1.9-0.5-1.9-1.8c0-3.7,0-7.3,0-11
			c0-0.7,0.2-1.4,0.3-2.2c2.5-0.7,4.9-0.6,7.3-0.2c2.8,0.5,4.4,3.8,3.3,6.8C145.3,205.2,144.7,206.1,144.1,207.1z M142.3,202.5
			c-0.1-1.3-0.9-1.7-2.1-1.8c-1.1,0-1.6,0.6-1.6,1.7c0,1.1,0.4,1.7,1.6,1.7C141.3,204.1,142.2,203.8,142.3,202.5z"/>
		<path id="XMLID_407_" class="st0" d="M345.4,207.2c-2.8-1.1-2.8-1.1-2.7-3.6c2,0,4.1,0,6.5,0c0,2.2,0.1,4.2-0.1,6.2
			c-0.1,0.8-0.7,1.7-1.4,2.1c-2.9,1.9-7.4,1.3-9.8-1.2c-2.5-2.5-2.9-7-1-10.2c1.8-3,5.6-4.4,9-3.2c1,0.3,2.4,0.6,2,2.1
			c-0.3,1.4-1.3,1.9-2.8,1.4c-3.1-1.1-6.3,1.5-5.7,5c0.4,2.2,2.6,3.7,4.7,3.3C345,208.9,345.6,208.5,345.4,207.2z"/>
		<path id="XMLID_404_" class="st0" d="M557.9,212.1c-3.3,0.8-3.4,0.8-4.8-1.5c-0.6-1-1.3-2-1.9-3c-1.5,1-1.1,2.2-1.2,3.3
			c-0.1,1.3-0.8,1.7-2,1.7c-1.1,0-1.7-0.6-1.7-1.7c0-4.4,0-8.7,0-13.1c2.8-0.8,5.3-0.7,7.8-0.2c2.8,0.5,4.2,4,3.1,6.9
			c-0.3,0.8-0.9,1.6-1.5,2.5C556.3,208.6,557,210.2,557.9,212.1z M553.8,202.5c-0.1-1.4-1-1.7-2.2-1.7c-1.2,0-1.6,0.7-1.6,1.7
			c0,1.1,0.6,1.7,1.7,1.6C552.8,204,553.8,203.7,553.8,202.5z"/>
		<path id="XMLID_401_" class="st0" d="M360.2,207.9c-0.2,1.4-0.4,2.8-0.6,4.2c-3.1,0.8-3.5,0.6-3.5-2.1c-0.1-4,0-8.1,0-12.2
			c2.8-0.8,5.3-0.7,7.8-0.2c2.6,0.5,4.1,3.9,3.1,6.6c-0.3,0.9-1,1.8-1.5,2.8c0.3,0.8,0.8,1.7,1.2,2.6c0.3,0.8,0.7,1.6,1.1,2.4
			c-3.1,0.8-3.2,0.7-4.5-1.3c-0.6-1.1-1.4-2.1-2.1-3.1C360.7,207.7,360.4,207.8,360.2,207.9z M363.8,202.5c-0.2-1.2-0.9-1.7-2-1.7
			c-1.2,0-1.9,0.5-1.9,1.8c0,1.1,0.6,1.6,1.7,1.6C362.6,204.1,363.5,203.8,363.8,202.5z"/>
		<path id="XMLID_400_" class="st0" d="M404.4,212.3c-2.3,0.4-3.7,0.6-4.8-1.4c-0.9-1.7-4.3-1.6-5.1,0.1c-0.9,1.9-2.3,1.7-4,1.4
			c-0.1-0.5-0.3-1.1-0.1-1.5c1.3-4.1,2.7-8.1,4-12.2c0.4-1.2,1.2-1.5,2.3-1.5c1.1,0,2.3-0.2,2.8,1.2
			C401.2,203,402.8,207.5,404.4,212.3z"/>
		<path id="XMLID_399_" class="st0" d="M502.6,197.5c0,5.1,0,9.8,0,14.5c-3.1,0.9-3.5,0.7-3.6-2c-0.1-1-0.1-2-0.2-3.2
			c-1.5,0-2.8,0-4.4,0c-0.1,1.2-0.2,2.4-0.2,3.5c0,1.3-0.3,2.2-1.8,2.2c-1.5,0-2-0.7-2-2.1c0-4.2,0-8.5,0-13c1.4,0,2.4,0,3.6,0
			c0.2,1.9,0.3,3.6,0.4,5.4c0.8,0.1,1.5,0.3,2.1,0.3c1.9,0,2.3-0.4,2.4-2.3c0.1-1.1,0.1-2.2,0.2-3.5
			C500.4,197.5,501.4,197.5,502.6,197.5z"/>
		<path id="XMLID_396_" class="st0" d="M530.9,197.7c4-0.6,4-0.6,5.1,2.6c1.1,3.3,2.3,6.5,3.4,9.8c0.2,0.6,0.3,1.3,0.4,2
			c-2.8,0.9-2.9,0.9-4.2-0.8c-1.4-1.8-3.9-1.8-5.3,0c-1.3,1.7-1.3,1.7-4.5,0.8C527.6,207.2,529.3,202.3,530.9,197.7z M533,204.3
			c-0.3,0.4-0.7,0.6-0.6,0.8c0.1,0.3,0.3,0.6,0.5,0.9c0.2-0.2,0.6-0.3,0.6-0.5C533.4,205.2,533.2,204.8,533,204.3z"/>
		<path id="XMLID_395_" class="st0" d="M383.9,197.5c0,1.1,0,1.9,0,2.7c-0.3,0.2-0.6,0.4-0.9,0.5c-0.7,0.1-1.4,0-2.1,0.1
			c-1.1,0.1-2.9-0.6-3,1.2c-0.1,1.8,1.7,1.3,2.8,1.4c0.7,0.1,1.4,0.1,2.4,0.2c0,0.9,0,1.7,0,2.6c-0.4,0.2-0.6,0.4-0.9,0.4
			c-1,0.1-2.1,0-3,0.2c-0.5,0.1-0.9,0.7-1.3,1c0.4,0.5,0.8,1.2,1.3,1.3c1.2,0.2,2.4,0.1,3.7,0.2c0.9,0,1.6,0.4,1.6,1.4
			c0.1,1.2-0.3,2-1.6,2c-2.7,0-5.5,0-8.5,0c-0.6-5.2-0.4-10.1-0.1-15.2C377.4,197.5,380.5,197.5,383.9,197.5z"/>
		<path id="XMLID_394_" class="st0" d="M172.3,197.5c3.2,0,6.3,0,9.4,0c0.6,2.9,0.5,3.1-1.9,3.2c-0.9,0-1.9-0.1-2.7,0.1
			c-0.4,0.1-1,0.8-1,1.2c0,0.4,0.6,1.2,1,1.2c1.4,0.2,2.8,0.2,4.1,0.3c0.4,2.9,0.3,3-1.9,3.1c-0.7,0-1.5-0.1-2.1,0.1
			c-0.5,0.1-1.1,0.7-1,1.1c0,0.4,0.6,1.1,1,1.2c1.2,0.2,2.4,0.1,3.6,0.2c0.5,0,1,0.2,1.6,0.4c0,0.9,0,1.8,0,2.9c-3.4,0-6.6,0-9.7,0
			C171.7,210.2,171.5,201.4,172.3,197.5z"/>
		<path id="XMLID_393_" class="st0" d="M455.6,197.3c0,3.8,0.2,7.2-0.1,10.5c-0.3,3.2-3.1,5.3-6.2,5.3c-2.9,0-5.5-2.1-5.9-5.2
			c-0.3-2.9-0.2-5.9-0.1-8.8c0.1-1.6,0.5-1.7,3.7-1.2c0,2,0,4.1,0.1,6.2c0,1.2,0.1,2.4,0.4,3.6c0.2,1,1,1.8,2,1.5
			c0.8-0.2,1.7-0.9,2-1.5c0.4-0.9,0.3-2,0.4-3c0-2.2,0-4.4,0-6.9C453.2,197.5,454.1,197.4,455.6,197.3z"/>
		<path id="XMLID_392_" class="st0" d="M509.7,197.5c3.5,0,6.5,0,9.5,0c0.8,2.8,0.6,3.1-1.8,3.2c-0.7,0-1.4,0-2.1,0
			c-0.8,0-1.8,0.1-1.8,1.2c0,1.3,0.9,1.4,1.9,1.4c1.1,0,2.2,0,3.2,0c0.6,3.1,0.6,3.2-1.9,3.3c-0.4,0-0.8,0-1.2,0
			c-0.9,0.1-2-0.1-2,1.3c0.1,1.3,1.2,1.2,2.1,1.2c1.3,0,2.6,0,4.1,0c0,1.3,0,2.2,0,3.5c-2.9,0-5.6,0-8.3,0c-1.1,0-1.7-0.6-1.7-1.7
			C509.7,206.6,509.7,202.2,509.7,197.5z"/>
		<path id="XMLID_391_" class="st0" d="M127.7,197.5c0.1,3.8,0.5,7.4-0.3,11c-0.6,2.8-2.9,4.4-5.8,4.4c-2.8,0-5.3-1.8-5.8-4.4
			c-0.7-3.6-0.4-7.2-0.1-11c1.2,0,2.2,0,3.5,0c0,2.3,0,4.5,0.1,6.7c0,1,0,2,0.2,3c0.2,1.1,0.9,1.8,2.1,1.8c1.2,0,2-0.7,2.2-1.7
			c0.3-1,0.3-2,0.3-3c0-2.2,0-4.4,0-6.8C125.5,197.5,126.4,197.5,127.7,197.5z"/>
		<path id="XMLID_390_" class="st0" d="M307.1,197.5c3.5,0,6.5,0,9.8,0c0.1,1,0.1,1.8,0.2,2.6c-0.5,0.2-0.7,0.5-1,0.5
			c-1.3,0.1-2.7,0-3.9,0.2c-0.5,0.1-1,0.8-1.2,1.4c-0.1,0.2,0.7,1,1.2,1.1c1.3,0.1,2.6,0.1,3.8,0.1c0.8,3,0.6,3.2-1.8,3.3
			c-0.6,0-1.3-0.1-1.8,0.1c-0.5,0.2-0.9,0.8-1.4,1.2c0.5,0.4,0.9,1,1.5,1.2c1,0.2,2,0.1,3,0.1c1.3,0,2.2,0.3,2.2,1.9
			c-0.1,1.4-1,1.6-2.1,1.6c-2.1,0-4.3,0-6.4,0c-1.2,0-2-0.5-2-1.8C307.1,206.5,307.1,202.2,307.1,197.5z"/>
		<path id="XMLID_389_" class="st0" d="M435.4,203.3c0.3,3.1,0.3,3.1-2,3.3c-0.8,0.1-1.6,0.1-2.4,0.2c-0.1,0-0.2,0.1-0.6,0.2
			c-0.1,1.6-0.3,3.4-0.5,5.1c-3,0.8-3.5,0.6-3.5-2.1c-0.1-4,0-8.1,0-12.4c3.5,0,6.5,0,9.8,0c0,1,0,1.8,0,3c-1.5,0.1-2.9,0.1-4.3,0.2
			c-0.9,0-1.7,0.2-1.7,1.3c0,1.1,0.8,1.3,1.7,1.3C433.1,203.3,434.2,203.3,435.4,203.3z"/>
		<path id="XMLID_388_" class="st0" d="M277.4,212.3c-3.6,0.4-3.8,0.3-3.8-2.3c0-1.9,0-3.9,0-5.8c0-1-0.1-2-0.2-3.1
			c-1-0.1-1.8-0.3-2.6-0.4c-1.2-0.1-1.5-0.9-1.4-1.9c0.1-1.1,0.7-1.4,1.6-1.4c3,0,5.9-0.1,8.9,0c1.6,0.1,1.7,0.3,1.3,2.8
			c-0.2,0.1-0.3,0.3-0.5,0.3c-3.2,0.5-3.2,0.5-3.2,3.8C277.4,206.9,277.4,209.5,277.4,212.3z"/>
		<path id="XMLID_387_" class="st0" d="M187.8,197.7c3.9-0.6,3.9-0.6,5.2,2.2c0.3,0.7,0.7,1.4,1.4,2.7c0.7-1.3,1.1-2.1,1.6-3
			c1.3-2.6,1.3-2.6,4.8-1.8c-0.9,1.9-1.7,3.7-2.7,5.4c-1.2,2.1-1.9,4.2-1.9,6.6c0.1,2.8-0.2,2.9-3.4,2.4c-0.7-2.4,0.2-5.2-1.4-7.5
			C190,202.6,189.1,200.3,187.8,197.7z"/>
		<path id="XMLID_386_" class="st0" d="M231,197.3c0,1.3,0,2.1,0,3c-1.2,0.2-2.2,0.4-3.7,0.7c-0.1,1-0.3,2.1-0.3,3.1
			c-0.1,2.2,0,4.5-0.1,6.7c0,1.3-0.8,1.8-2,1.7c-1.1,0-1.7-0.7-1.7-1.7c0-2.4,0-4.9,0-7.3c0-2.4-0.1-2.5-2.4-2.8
			c-1.3-0.2-1.8-0.7-1.7-2c0.1-1.2,0.9-1.4,1.9-1.4C224.3,197.3,227.5,197.3,231,197.3z"/>
		<path id="XMLID_385_" class="st0" d="M570.7,212.4c-1.3,0-2.2,0-3.4,0c-0.1-3.9-0.2-7.6-0.3-11.4c-1.3-0.2-2.4-0.4-3.8-0.7
			c-0.1-0.8-0.2-1.7-0.3-3c4.1-0.3,7.9-0.1,11.6-0.1c0.6,2.9,0.7,3.1-1.6,3.3c-1.6,0.2-2.1,1-2,2.4c0,2,0,4.1,0,6.1
			C570.9,210.2,570.8,211.2,570.7,212.4z"/>
		<path id="XMLID_384_" class="st0" d="M466.3,208.9c1.8,0.1,3,0.1,4.2,0.2c1.1,0,1.8,0.5,1.8,1.6c0,1.3-0.6,1.9-1.9,1.9
			c-1.9,0-3.9,0-5.8,0c-1.2,0-2-0.5-2-1.8c0-4.4,0-8.7,0-13.3c1.3,0,2.3,0,3.7,0C466.3,201.3,466.3,204.9,466.3,208.9z"/>
		<path id="XMLID_383_" class="st0" d="M420.1,197.3c0,1.3,0,2.1,0,2.9c-3.9,1-3.9,1-3.9,5c0,1.6,0,3.3,0,4.9
			c-0.1,2.4-0.2,2.5-3.3,2.2c-0.1-1.2-0.2-2.5-0.2-3.8c0-1.7,0-3.5,0-5.2c-0.1-2.3-0.1-2.3-2.4-2.6c-1.1-0.2-2-0.4-2-1.7
			c0-1.4,0.9-1.7,2-1.7C413.5,197.3,416.7,197.3,420.1,197.3z"/>
		<path id="XMLID_382_" class="st0" d="M84.5,197.5c1.2,0,2,0,2.7,0c0.2,0.3,0.5,0.4,0.5,0.6c0,3.3,0.4,6.7,0,10
			c-0.5,4.5-5,6.4-8.3,3.8c-0.5-0.4-1-1.5-0.8-1.9c0.2-0.6,1.2-0.9,1.9-1.2c0.2-0.1,0.6,0.2,0.9,0.2c2,0.2,2.8-0.4,3-2.5
			c0.2-1.9,0.1-3.9,0.1-5.8C84.3,199.7,84.4,198.7,84.5,197.5z"/>
	</g>
</g>
</svg>
